<mxfile host="app.diagrams.net" modified="2022-09-29T13:47:11.336Z" agent="5.0 (Macintosh; Intel Mac OS X 10_15_7) AppleWebKit/605.1.15 (KHTML, like Gecko) Version/15.6.1 Safari/605.1.15" etag="HaxHMRNFvWcatT9Qy6WV" version="20.3.7" type="github">
  <diagram id="C5RBs43oDa-KdzZeNtuy" name="Page-1">
    <mxGraphModel dx="1406" dy="759" grid="1" gridSize="10" guides="1" tooltips="1" connect="1" arrows="1" fold="1" page="1" pageScale="1" pageWidth="827" pageHeight="1169" math="0" shadow="0">
      <root>
        <mxCell id="WIyWlLk6GJQsqaUBKTNV-0" />
        <mxCell id="WIyWlLk6GJQsqaUBKTNV-1" parent="WIyWlLk6GJQsqaUBKTNV-0" />
        <mxCell id="eCtHmPVDVvByqVxLCHqE-5" style="edgeStyle=none;curved=1;rounded=0;orthogonalLoop=1;jettySize=auto;html=1;endArrow=open;sourcePerimeterSpacing=8;targetPerimeterSpacing=8;exitX=0.5;exitY=1;exitDx=0;exitDy=0;entryX=0.5;entryY=0;entryDx=0;entryDy=0;shape=flexArrow;" edge="1" parent="WIyWlLk6GJQsqaUBKTNV-1" source="eCtHmPVDVvByqVxLCHqE-3" target="eCtHmPVDVvByqVxLCHqE-4">
          <mxGeometry relative="1" as="geometry" />
        </mxCell>
        <mxCell id="eCtHmPVDVvByqVxLCHqE-3" value="火目金睛" style="rounded=0;whiteSpace=wrap;html=1;hachureGap=4;" vertex="1" parent="WIyWlLk6GJQsqaUBKTNV-1">
          <mxGeometry x="200" y="200" width="80" height="40" as="geometry" />
        </mxCell>
        <mxCell id="eCtHmPVDVvByqVxLCHqE-13" value="" style="edgeStyle=none;curved=1;rounded=0;orthogonalLoop=1;jettySize=auto;html=1;endArrow=open;sourcePerimeterSpacing=8;targetPerimeterSpacing=8;exitX=0.5;exitY=1;exitDx=0;exitDy=0;entryX=0.5;entryY=0;entryDx=0;entryDy=0;shape=flexArrow;" edge="1" parent="WIyWlLk6GJQsqaUBKTNV-1" source="eCtHmPVDVvByqVxLCHqE-4" target="eCtHmPVDVvByqVxLCHqE-12">
          <mxGeometry relative="1" as="geometry" />
        </mxCell>
        <mxCell id="eCtHmPVDVvByqVxLCHqE-4" value="開始畫面" style="rounded=0;whiteSpace=wrap;html=1;hachureGap=4;" vertex="1" parent="WIyWlLk6GJQsqaUBKTNV-1">
          <mxGeometry x="200" y="280" width="80" height="40" as="geometry" />
        </mxCell>
        <mxCell id="eCtHmPVDVvByqVxLCHqE-35" value="" style="edgeStyle=none;curved=1;rounded=0;orthogonalLoop=1;jettySize=auto;html=1;endArrow=open;sourcePerimeterSpacing=8;targetPerimeterSpacing=8;exitX=0.487;exitY=0.952;exitDx=0;exitDy=0;exitPerimeter=0;entryX=0.5;entryY=0;entryDx=0;entryDy=0;shape=flexArrow;" edge="1" parent="WIyWlLk6GJQsqaUBKTNV-1" source="eCtHmPVDVvByqVxLCHqE-12" target="eCtHmPVDVvByqVxLCHqE-34">
          <mxGeometry relative="1" as="geometry" />
        </mxCell>
        <mxCell id="eCtHmPVDVvByqVxLCHqE-45" style="edgeStyle=none;rounded=0;orthogonalLoop=1;jettySize=auto;html=1;entryX=0;entryY=0.5;entryDx=0;entryDy=0;strokeColor=#000000;endArrow=open;sourcePerimeterSpacing=8;targetPerimeterSpacing=8;exitX=1;exitY=0.5;exitDx=0;exitDy=0;shape=flexArrow;" edge="1" parent="WIyWlLk6GJQsqaUBKTNV-1" source="eCtHmPVDVvByqVxLCHqE-12" target="eCtHmPVDVvByqVxLCHqE-30">
          <mxGeometry relative="1" as="geometry" />
        </mxCell>
        <mxCell id="eCtHmPVDVvByqVxLCHqE-12" value="按下任何按鍵" style="rhombus;whiteSpace=wrap;html=1;hachureGap=4;" vertex="1" parent="WIyWlLk6GJQsqaUBKTNV-1">
          <mxGeometry x="195" y="360" width="90" height="80" as="geometry" />
        </mxCell>
        <mxCell id="eCtHmPVDVvByqVxLCHqE-71" style="edgeStyle=none;shape=flexArrow;rounded=0;orthogonalLoop=1;jettySize=auto;html=1;strokeColor=#000000;endArrow=open;sourcePerimeterSpacing=8;targetPerimeterSpacing=8;entryX=1;entryY=0.5;entryDx=0;entryDy=0;exitX=0.5;exitY=0;exitDx=0;exitDy=0;" edge="1" parent="WIyWlLk6GJQsqaUBKTNV-1" source="eCtHmPVDVvByqVxLCHqE-18" target="eCtHmPVDVvByqVxLCHqE-4">
          <mxGeometry relative="1" as="geometry">
            <mxPoint x="406.4" y="328.0000000000001" as="targetPoint" />
            <Array as="points">
              <mxPoint x="500" y="300" />
            </Array>
          </mxGeometry>
        </mxCell>
        <mxCell id="eCtHmPVDVvByqVxLCHqE-18" value="進入靜置畫面" style="whiteSpace=wrap;html=1;hachureGap=4;" vertex="1" parent="WIyWlLk6GJQsqaUBKTNV-1">
          <mxGeometry x="460" y="380" width="80" height="40" as="geometry" />
        </mxCell>
        <mxCell id="eCtHmPVDVvByqVxLCHqE-33" style="edgeStyle=none;curved=1;rounded=0;orthogonalLoop=1;jettySize=auto;html=1;entryX=0;entryY=0.5;entryDx=0;entryDy=0;endArrow=open;sourcePerimeterSpacing=8;targetPerimeterSpacing=8;exitX=1;exitY=0.5;exitDx=0;exitDy=0;shape=flexArrow;" edge="1" parent="WIyWlLk6GJQsqaUBKTNV-1" source="eCtHmPVDVvByqVxLCHqE-30" target="eCtHmPVDVvByqVxLCHqE-18">
          <mxGeometry relative="1" as="geometry" />
        </mxCell>
        <mxCell id="eCtHmPVDVvByqVxLCHqE-30" value="不動五分鐘" style="rhombus;whiteSpace=wrap;html=1;hachureGap=4;" vertex="1" parent="WIyWlLk6GJQsqaUBKTNV-1">
          <mxGeometry x="324" y="360" width="90" height="80" as="geometry" />
        </mxCell>
        <mxCell id="eCtHmPVDVvByqVxLCHqE-56" value="" style="edgeStyle=none;rounded=0;orthogonalLoop=1;jettySize=auto;html=1;strokeColor=#000000;endArrow=open;sourcePerimeterSpacing=8;targetPerimeterSpacing=8;exitX=0.5;exitY=1;exitDx=0;exitDy=0;entryX=0.5;entryY=0;entryDx=0;entryDy=0;shape=flexArrow;" edge="1" parent="WIyWlLk6GJQsqaUBKTNV-1" source="eCtHmPVDVvByqVxLCHqE-34" target="eCtHmPVDVvByqVxLCHqE-55">
          <mxGeometry relative="1" as="geometry" />
        </mxCell>
        <mxCell id="eCtHmPVDVvByqVxLCHqE-34" value="規則介紹" style="whiteSpace=wrap;html=1;hachureGap=4;" vertex="1" parent="WIyWlLk6GJQsqaUBKTNV-1">
          <mxGeometry x="200" y="480" width="80" height="30" as="geometry" />
        </mxCell>
        <mxCell id="eCtHmPVDVvByqVxLCHqE-46" value="No" style="text;strokeColor=none;fillColor=none;html=1;align=center;verticalAlign=middle;whiteSpace=wrap;rounded=0;hachureGap=4;" vertex="1" parent="WIyWlLk6GJQsqaUBKTNV-1">
          <mxGeometry x="275" y="370" width="40" height="20" as="geometry" />
        </mxCell>
        <mxCell id="eCtHmPVDVvByqVxLCHqE-47" value="Yes" style="text;strokeColor=none;fillColor=none;html=1;align=center;verticalAlign=middle;whiteSpace=wrap;rounded=0;hachureGap=4;" vertex="1" parent="WIyWlLk6GJQsqaUBKTNV-1">
          <mxGeometry x="240" y="430" width="30" height="30" as="geometry" />
        </mxCell>
        <mxCell id="eCtHmPVDVvByqVxLCHqE-62" style="edgeStyle=none;rounded=0;orthogonalLoop=1;jettySize=auto;html=1;strokeColor=#000000;endArrow=open;sourcePerimeterSpacing=8;targetPerimeterSpacing=8;exitX=0.5;exitY=1;exitDx=0;exitDy=0;entryX=0.5;entryY=0;entryDx=0;entryDy=0;shape=flexArrow;" edge="1" parent="WIyWlLk6GJQsqaUBKTNV-1" source="eCtHmPVDVvByqVxLCHqE-55" target="eCtHmPVDVvByqVxLCHqE-61">
          <mxGeometry relative="1" as="geometry" />
        </mxCell>
        <mxCell id="eCtHmPVDVvByqVxLCHqE-64" style="edgeStyle=none;rounded=0;orthogonalLoop=1;jettySize=auto;html=1;entryX=0.5;entryY=0;entryDx=0;entryDy=0;strokeColor=#000000;endArrow=open;sourcePerimeterSpacing=8;targetPerimeterSpacing=8;exitX=0.5;exitY=1;exitDx=0;exitDy=0;shape=flexArrow;" edge="1" parent="WIyWlLk6GJQsqaUBKTNV-1" source="eCtHmPVDVvByqVxLCHqE-55" target="eCtHmPVDVvByqVxLCHqE-63">
          <mxGeometry relative="1" as="geometry" />
        </mxCell>
        <mxCell id="eCtHmPVDVvByqVxLCHqE-55" value="選擇難度" style="whiteSpace=wrap;html=1;hachureGap=4;" vertex="1" parent="WIyWlLk6GJQsqaUBKTNV-1">
          <mxGeometry x="200" y="550" width="80" height="30" as="geometry" />
        </mxCell>
        <mxCell id="eCtHmPVDVvByqVxLCHqE-58" value="Yes" style="text;strokeColor=none;fillColor=none;html=1;align=center;verticalAlign=middle;whiteSpace=wrap;rounded=0;hachureGap=4;" vertex="1" parent="WIyWlLk6GJQsqaUBKTNV-1">
          <mxGeometry x="414" y="365" width="30" height="30" as="geometry" />
        </mxCell>
        <mxCell id="eCtHmPVDVvByqVxLCHqE-66" style="edgeStyle=none;rounded=0;orthogonalLoop=1;jettySize=auto;html=1;strokeColor=#000000;endArrow=open;sourcePerimeterSpacing=8;targetPerimeterSpacing=8;entryX=0.5;entryY=0;entryDx=0;entryDy=0;exitX=0.5;exitY=1;exitDx=0;exitDy=0;shape=flexArrow;" edge="1" parent="WIyWlLk6GJQsqaUBKTNV-1" source="eCtHmPVDVvByqVxLCHqE-61" target="eCtHmPVDVvByqVxLCHqE-65">
          <mxGeometry relative="1" as="geometry" />
        </mxCell>
        <mxCell id="eCtHmPVDVvByqVxLCHqE-61" value="簡單模式" style="whiteSpace=wrap;html=1;hachureGap=4;" vertex="1" parent="WIyWlLk6GJQsqaUBKTNV-1">
          <mxGeometry x="150" y="610" width="80" height="30" as="geometry" />
        </mxCell>
        <mxCell id="eCtHmPVDVvByqVxLCHqE-67" style="edgeStyle=none;rounded=0;orthogonalLoop=1;jettySize=auto;html=1;entryX=0.5;entryY=0;entryDx=0;entryDy=0;strokeColor=#000000;endArrow=open;sourcePerimeterSpacing=8;targetPerimeterSpacing=8;exitX=0.5;exitY=1;exitDx=0;exitDy=0;shape=flexArrow;" edge="1" parent="WIyWlLk6GJQsqaUBKTNV-1" source="eCtHmPVDVvByqVxLCHqE-63" target="eCtHmPVDVvByqVxLCHqE-65">
          <mxGeometry relative="1" as="geometry" />
        </mxCell>
        <mxCell id="eCtHmPVDVvByqVxLCHqE-63" value="困難模式" style="whiteSpace=wrap;html=1;hachureGap=4;" vertex="1" parent="WIyWlLk6GJQsqaUBKTNV-1">
          <mxGeometry x="250" y="610" width="80" height="30" as="geometry" />
        </mxCell>
        <mxCell id="eCtHmPVDVvByqVxLCHqE-72" style="edgeStyle=none;shape=flexArrow;rounded=0;orthogonalLoop=1;jettySize=auto;html=1;entryX=0;entryY=0.5;entryDx=0;entryDy=0;strokeColor=#000000;endArrow=open;sourcePerimeterSpacing=8;targetPerimeterSpacing=8;exitX=0;exitY=0.5;exitDx=0;exitDy=0;" edge="1" parent="WIyWlLk6GJQsqaUBKTNV-1" source="eCtHmPVDVvByqVxLCHqE-65" target="eCtHmPVDVvByqVxLCHqE-4">
          <mxGeometry relative="1" as="geometry">
            <Array as="points">
              <mxPoint x="130" y="695" />
              <mxPoint x="130" y="300" />
            </Array>
          </mxGeometry>
        </mxCell>
        <mxCell id="eCtHmPVDVvByqVxLCHqE-65" value="結束畫面" style="whiteSpace=wrap;html=1;hachureGap=4;" vertex="1" parent="WIyWlLk6GJQsqaUBKTNV-1">
          <mxGeometry x="195" y="680" width="80" height="30" as="geometry" />
        </mxCell>
      </root>
    </mxGraphModel>
  </diagram>
</mxfile>
